<?xml version="1.0" encoding="UTF-8" standalone="no"?>
<svg width="200" height="200" viewBox="0 0 200 200" fill="none" xmlns="http://www.w3.org/2000/svg">
  <defs>
    <linearGradient id="bgGradient" x1="0%" y1="0%" x2="100%" y2="100%">
      <stop offset="0%" stop-color="#050510" />
      <stop offset="100%" stop-color="#0a0a1a" />
    </linearGradient>
    <linearGradient id="neonGradient" x1="0%" y1="0%" x2="100%" y2="100%">
      <stop offset="0%" stop-color="#00ff00" />
      <stop offset="100%" stop-color="#00ffff" />
    </linearGradient>
    <filter id="glow">
      <feGaussianBlur stdDeviation="3" result="blur" />
      <feComposite in="SourceGraphic" in2="blur" operator="over" />
    </filter>
  </defs>
  
  <!-- Background Circle -->
  <circle cx="100" cy="100" r="100" fill="url(#bgGradient)" />
  
  <!-- Border -->
  <circle cx="100" cy="100" r="97" stroke="url(#neonGradient)" stroke-width="3" fill="none" />
  
  <!-- Avatar Base -->
  <circle cx="100" cy="90" r="50" fill="#1a1a2a" />
  
  <!-- Avatar Features -->
  <circle cx="100" cy="180" r="70" fill="#1a1a2a" />
  
  <!-- Eyes -->
  <circle cx="80" cy="80" r="8" fill="url(#neonGradient)" filter="url(#glow)" />
  <circle cx="120" cy="80" r="8" fill="url(#neonGradient)" filter="url(#glow)" />
  
  <!-- Mouth -->
  <path d="M80 110 Q100 120 120 110" stroke="url(#neonGradient)" stroke-width="3" fill="none" filter="url(#glow)" />
  
  <!-- Beard -->
  <path d="M70 110 Q100 160 130 110" stroke="url(#neonGradient)" stroke-width="3" fill="none" filter="url(#glow)" />
  <path d="M80 120 Q100 150 120 120" stroke="url(#neonGradient)" stroke-width="2" fill="none" filter="url(#glow)" />
  <path d="M90 130 Q100 145 110 130" stroke="url(#neonGradient)" stroke-width="1" fill="none" filter="url(#glow)" />
  
  <!-- Decorative Elements -->
  <circle cx="60" cy="60" r="5" fill="url(#neonGradient)" opacity="0.5" filter="url(#glow)" />
  <circle cx="140" cy="60" r="5" fill="url(#neonGradient)" opacity="0.5" filter="url(#glow)" />
  <circle cx="60" cy="140" r="5" fill="url(#neonGradient)" opacity="0.5" filter="url(#glow)" />
  <circle cx="140" cy="140" r="5" fill="url(#neonGradient)" opacity="0.5" filter="url(#glow)" />
</svg>
