<?xml version="1.0" encoding="UTF-8" standalone="no"?>
<svg width="1200" height="630" viewBox="0 0 1200 630" fill="none" xmlns="http://www.w3.org/2000/svg">
  <defs>
    <linearGradient id="bgGradient" x1="0%" y1="0%" x2="100%" y2="100%">
      <stop offset="0%" stop-color="#050510" />
      <stop offset="100%" stop-color="#0a0a1a" />
    </linearGradient>
    <linearGradient id="neonGradient" x1="0%" y1="0%" x2="100%" y2="100%">
      <stop offset="0%" stop-color="#00ff00" />
      <stop offset="100%" stop-color="#00ffff" />
    </linearGradient>
    <filter id="glow">
      <feGaussianBlur stdDeviation="10" result="blur" />
      <feComposite in="SourceGraphic" in2="blur" operator="over" />
    </filter>
  </defs>

  <!-- Background -->
  <rect width="1200" height="630" fill="url(#bgGradient)" />

  <!-- Grid lines -->
  <g opacity="0.1">
    <line x1="0" y1="100" x2="1200" y2="100" stroke="#00ff00" stroke-width="1" />
    <line x1="0" y1="200" x2="1200" y2="200" stroke="#00ff00" stroke-width="1" />
    <line x1="0" y1="300" x2="1200" y2="300" stroke="#00ff00" stroke-width="1" />
    <line x1="0" y1="400" x2="1200" y2="400" stroke="#00ff00" stroke-width="1" />
    <line x1="0" y1="500" x2="1200" y2="500" stroke="#00ff00" stroke-width="1" />

    <line x1="100" y1="0" x2="100" y2="630" stroke="#00ff00" stroke-width="1" />
    <line x1="200" y1="0" x2="200" y2="630" stroke="#00ff00" stroke-width="1" />
    <line x1="300" y1="0" x2="300" y2="630" stroke="#00ff00" stroke-width="1" />
    <line x1="400" y1="0" x2="400" y2="630" stroke="#00ff00" stroke-width="1" />
    <line x1="500" y1="0" x2="500" y2="630" stroke="#00ff00" stroke-width="1" />
    <line x1="600" y1="0" x2="600" y2="630" stroke="#00ff00" stroke-width="1" />
    <line x1="700" y1="0" x2="700" y2="630" stroke="#00ff00" stroke-width="1" />
    <line x1="800" y1="0" x2="800" y2="630" stroke="#00ff00" stroke-width="1" />
    <line x1="900" y1="0" x2="900" y2="630" stroke="#00ff00" stroke-width="1" />
    <line x1="1000" y1="0" x2="1000" y2="630" stroke="#00ff00" stroke-width="1" />
    <line x1="1100" y1="0" x2="1100" y2="630" stroke="#00ff00" stroke-width="1" />
  </g>

  <!-- Main Logo -->
  <g filter="url(#glow)" transform="translate(300, 315)">
    <circle cx="0" cy="0" r="150" fill="url(#neonGradient)" />
    <circle cx="0" cy="0" r="140" fill="#0a0a1a" />
    <circle cx="0" cy="0" r="130" fill="url(#neonGradient)" opacity="0.9" />

    <!-- NeonX Logo -->
    <g transform="translate(-65, -40) scale(3.5)">
      <path d="M10 12L16 20L10 28" stroke="white" stroke-width="3" stroke-linecap="round" stroke-linejoin="round" />
      <path d="M30 12L24 20L30 28" stroke="white" stroke-width="3" stroke-linecap="round" stroke-linejoin="round" />
      <line x1="20" y1="10" x2="20" y2="30" stroke="white" stroke-width="3" stroke-linecap="round" />
    </g>
  </g>

  <!-- Text -->
  <g transform="translate(600, 315)">
    <text x="0" y="-50" font-family="'Orbitron', sans-serif" font-size="80" font-weight="bold" fill="url(#neonGradient)" text-anchor="middle" filter="url(#glow)">NEONX</text>
    <text x="0" y="30" font-family="'Poppins', sans-serif" font-size="40" fill="white" text-anchor="middle">ILLUMINATE THE CHAIN</text>
    <text x="0" y="90" font-family="'Poppins', sans-serif" font-size="30" fill="#00ff00" text-anchor="middle">ON SOLANA</text>
  </g>

  <!-- URL -->
  <text x="600" y="580" font-family="'Poppins', sans-serif" font-size="24" fill="white" text-anchor="middle">neonxcoin.xyz</text>
</svg>
