<?xml version="1.0" encoding="UTF-8" standalone="no"?>
<svg width="500" height="300" viewBox="0 0 500 300" fill="none" xmlns="http://www.w3.org/2000/svg">
  <defs>
    <linearGradient id="bgGradient" x1="0%" y1="0%" x2="100%" y2="100%">
      <stop offset="0%" stop-color="#050510" />
      <stop offset="100%" stop-color="#0a0a1a" />
    </linearGradient>
    <linearGradient id="neonGradient" x1="0%" y1="0%" x2="100%" y2="100%">
      <stop offset="0%" stop-color="#00ff00" />
      <stop offset="100%" stop-color="#00ffff" />
    </linearGradient>
    <filter id="glow">
      <feGaussianBlur stdDeviation="5" result="blur" />
      <feComposite in="SourceGraphic" in2="blur" operator="over" />
    </filter>
  </defs>
  
  <!-- Background -->
  <rect width="500" height="300" fill="url(#bgGradient)" />
  
  <!-- Grid lines -->
  <g opacity="0.1">
    <line x1="0" y1="50" x2="500" y2="50" stroke="#00ff00" stroke-width="1" />
    <line x1="0" y1="100" x2="500" y2="100" stroke="#00ff00" stroke-width="1" />
    <line x1="0" y1="150" x2="500" y2="150" stroke="#00ff00" stroke-width="1" />
    <line x1="0" y1="200" x2="500" y2="200" stroke="#00ff00" stroke-width="1" />
    <line x1="0" y1="250" x2="500" y2="250" stroke="#00ff00" stroke-width="1" />
    
    <line x1="50" y1="0" x2="50" y2="300" stroke="#00ff00" stroke-width="1" />
    <line x1="100" y1="0" x2="100" y2="300" stroke="#00ff00" stroke-width="1" />
    <line x1="150" y1="0" x2="150" y2="300" stroke="#00ff00" stroke-width="1" />
    <line x1="200" y1="0" x2="200" y2="300" stroke="#00ff00" stroke-width="1" />
    <line x1="250" y1="0" x2="250" y2="300" stroke="#00ff00" stroke-width="1" />
    <line x1="300" y1="0" x2="300" y2="300" stroke="#00ff00" stroke-width="1" />
    <line x1="350" y1="0" x2="350" y2="300" stroke="#00ff00" stroke-width="1" />
    <line x1="400" y1="0" x2="400" y2="300" stroke="#00ff00" stroke-width="1" />
    <line x1="450" y1="0" x2="450" y2="300" stroke="#00ff00" stroke-width="1" />
  </g>
  
  <!-- Solana Logo (Stylized) -->
  <g filter="url(#glow)" transform="translate(250, 150) scale(0.8)">
    <!-- Solana-inspired background -->
    <rect x="-150" y="-100" width="300" height="200" rx="20" fill="#0a0a1a" stroke="url(#neonGradient)" stroke-width="3" />
    
    <!-- Stylized Solana logo -->
    <g transform="translate(-100, -50) scale(0.8)">
      <path d="M50,25 L200,25 L225,50 L50,50 Z" fill="url(#neonGradient)" />
      <path d="M50,75 L200,75 L225,100 L50,100 Z" fill="url(#neonGradient)" />
      <path d="M50,125 L200,125 L225,150 L50,150 Z" fill="url(#neonGradient)" />
    </g>
    
    <!-- NeonX Text -->
    <text x="0" y="50" font-family="'Orbitron', sans-serif" font-size="40" font-weight="bold" fill="url(#neonGradient)" text-anchor="middle">NEONX</text>
    <text x="0" y="80" font-family="'Poppins', sans-serif" font-size="16" fill="white" text-anchor="middle">ON SOLANA</text>
  </g>
  
  <!-- Decorative elements -->
  <circle cx="50" cy="50" r="5" fill="url(#neonGradient)" filter="url(#glow)" />
  <circle cx="450" cy="50" r="5" fill="url(#neonGradient)" filter="url(#glow)" />
  <circle cx="50" cy="250" r="5" fill="url(#neonGradient)" filter="url(#glow)" />
  <circle cx="450" cy="250" r="5" fill="url(#neonGradient)" filter="url(#glow)" />
</svg>
